<svg height="500" width="500" xmlns="http://www.w3.org/2000/svg"><path d="M0 0v500h500V0z" fill="#cc181e"/><path d="M500 246.272V500H184.018l-75.752-75.752-.41-175.677 90.613-22.043-23.826-23.825 3.57-75.916-7.854-66.81 26.797 26.796 24.587-26.804 43.737 43.737 3.82-1.8 32.073 32.073 12.685-37.687 21.845 21.845 14.16-21.8z" stroke="#000" opacity=".3"/><path d="M147.875 60c4.502 13.235 9.212 26.51 13.72 39.75 6.85 19.902 11.125 34.892 13.06 45.125v57.813h21.376v-57.813L221.72 60h-21.595l-14.563 56.03L170.345 60h-22.47zm102.47 35.063c-9.6 0-17.082 3.634-22.407 10.906-4.1 5.37-6.032 13.695-6.032 25.06v37.22c0 11.3 1.933 19.68 6.03 25 5.328 7.25 12.81 10.906 22.408 10.906 9.655 0 17.17-3.655 22.5-10.906 4.04-5.32 5.97-13.7 5.97-25l-.002-37.22c0-11.364-1.93-19.69-5.968-25.06-5.33-7.273-12.845-10.907-22.5-10.907zm44.31 1.28v84.094c0 7.506.688 12.59 1.75 15.813 1.923 5.386 6.175 7.906 12.376 7.906 7.03 0 14.364-4.27 22.033-13.062v11.594h19.25V96.344h-19.25v81.28c-4.27 6.035-8.336 9-12.188 9-2.586 0-4.075-1.516-4.5-4.5-.232-.63-.25-2.984-.25-7.5v-78.28h-19.22zm-44.31 16.063c6.212 0 9.186 4.913 9.186 14.75v44.75c0 9.84-2.974 14.72-9.186 14.72s-9.188-4.88-9.188-14.72v-44.75c0-9.837 2.976-14.75 9.188-14.75zm-7.72 107.688c-37.015 0-74.164.273-110.875 4.375-16.518 1.845-30.234 14.25-34.094 31.03-5.49 23.897-5.562 49.96-5.562 74.563v1.78c.002 24.085.14 49.453 5.5 72.782 3.86 16.78 17.607 29.186 34.125 31.03 36.752 4.11 73.91 4.345 110.968 4.345H257c37.057 0 74.217-.236 110.97-4.344 16.517-1.845 30.264-14.252 34.124-31.03 5.413-23.56 5.498-49.235 5.5-73.532v-1.03c0-24.604.054-50.667-5.438-74.564-3.858-16.78-17.577-29.185-34.094-31.03-36.713-4.102-73.858-4.376-110.875-4.376H242.625zm-127 39.25h66.5v19.875H159.28V400.56h-21.218V279.22h-22.437v-19.876zm140.594 0h19.06v46.125c6.157-7.578 12.708-11.408 19.72-11.408 7.59 0 12.66 3.995 15.22 11.875 1.262 4.235 1.936 11.2 1.936 21.157v41.875c0 9.738-.675 16.756-1.937 21.217C307.66 398.01 302.59 402 295 402c-6.778 0-13.35-3.743-19.72-11.625v10.188h-19.06v-141.22zm99.467 34.72c9.566-.002 17.192 3.577 22.532 10.78 3.992 5.32 5.874 13.536 5.874 24.78v21.782H345.97v18.656c0 9.74 3.167 14.625 9.717 14.625 4.7 0 7.474-2.554 8.563-7.656.173-1.038.406-5.29.406-12.936h19.438v2.812c0 6.133-.227 10.38-.406 12.28-.636 4.236-2.115 8.036-4.438 11.408-5.27 7.64-13.105 11.406-23.063 11.406-9.973 0-17.58-3.593-23.093-10.78-4.052-5.267-6.094-13.54-6.094-24.72v-36.875c0-11.245 1.826-19.46 5.875-24.78 5.515-7.204 13.082-10.783 22.813-10.783zm-170.78 1.28h19.03v77.47c0 4.467.01 6.775.188 7.405.464 2.952 1.92 4.436 4.47 4.436 3.825 0 7.83-2.902 12.06-8.875v-80.436h19.064v105.22l-19.064-.002v-11.468c-7.58 8.694-14.772 12.906-21.78 12.906-6.143 0-10.406-2.485-12.314-7.813-1.038-3.187-1.656-8.198-1.656-15.625v-83.218zm99.874 15.875c-3.133 0-6.308 1.478-9.5 4.624v64.125c3.192 3.186 6.366 4.686 9.5 4.686 5.5 0 8.314-4.65 8.314-14.156v-44.938c0-9.506-2.813-14.343-8.313-14.343zm70.783 0c-6.378 0-9.594 4.86-9.594 14.592v9.72h19.06v-9.72c.002-9.733-3.155-14.593-9.467-14.593z" fill="#fff"/></svg>